<svg width="1250.7" height="1786.4" xmlns="http://www.w3.org/2000/svg" xmlns:xlink="http://www.w3.org/1999/xlink"><line x1="199.5625" y1="7.0" x2="199.5625" y2="31.0" style="stroke:black; stroke-width:1px;" />
<line x1="199.5625" y1="38.0" x2="82.5625" y2="62.0" style="stroke:black; stroke-width:1px;" />
<line x1="82.5625" y1="69.0" x2="82.5625" y2="93.0" style="stroke:black; stroke-width:1px;" />
<line x1="199.5625" y1="38.0" x2="146.0625" y2="62.0" style="stroke:black; stroke-width:1px;" />
<line x1="199.5625" y1="38.0" x2="197.0625" y2="62.0" style="stroke:black; stroke-width:1px;" />
<line x1="197.0625" y1="69.0" x2="197.0625" y2="93.0" style="stroke:black; stroke-width:1px;" />
<line x1="199.5625" y1="38.0" x2="316.5625" y2="62.0" style="stroke:black; stroke-width:1px;" />
<line x1="316.5625" y1="69.0" x2="241.0625" y2="93.0" style="stroke:black; stroke-width:1px;" />
<line x1="316.5625" y1="69.0" x2="316.5625" y2="93.0" style="stroke:black; stroke-width:1px;" />
<line x1="316.5625" y1="100.0" x2="316.5625" y2="124.0" style="stroke:black; stroke-width:1px;" />
<line x1="316.5625" y1="131.0" x2="316.5625" y2="155.0" style="stroke:black; stroke-width:1px;" />
<line x1="316.5625" y1="162.0" x2="46.0" y2="186.0" style="stroke:black; stroke-width:1px;" />
<line x1="46.0" y1="193.0" x2="46.0" y2="217.0" style="stroke:black; stroke-width:1px;" />
<line x1="316.5625" y1="162.0" x2="145.0" y2="186.0" style="stroke:black; stroke-width:1px;" />
<line x1="145.0" y1="193.0" x2="145.0" y2="217.0" style="stroke:black; stroke-width:1px;" />
<line x1="316.5625" y1="162.0" x2="257.0" y2="186.0" style="stroke:black; stroke-width:1px;" />
<line x1="257.0" y1="193.0" x2="188.0" y2="217.0" style="stroke:black; stroke-width:1px;" />
<line x1="188.0" y1="224.0" x2="188.0" y2="248.0" style="stroke:black; stroke-width:1px;" />
<line x1="257.0" y1="193.0" x2="326.0" y2="217.0" style="stroke:black; stroke-width:1px;" />
<line x1="326.0" y1="224.0" x2="235.5" y2="248.0" style="stroke:black; stroke-width:1px;" />
<line x1="235.5" y1="255.0" x2="235.5" y2="279.0" style="stroke:black; stroke-width:1px;" />
<line x1="326.0" y1="224.0" x2="273.5" y2="248.0" style="stroke:black; stroke-width:1px;" />
<line x1="326.0" y1="224.0" x2="345.0" y2="248.0" style="stroke:black; stroke-width:1px;" />
<line x1="345.0" y1="255.0" x2="345.0" y2="279.0" style="stroke:black; stroke-width:1px;" />
<line x1="345.0" y1="286.0" x2="345.0" y2="310.0" style="stroke:black; stroke-width:1px;" />
<line x1="345.0" y1="317.0" x2="295.5" y2="341.0" style="stroke:black; stroke-width:1px;" />
<line x1="295.5" y1="348.0" x2="295.5" y2="372.0" style="stroke:black; stroke-width:1px;" />
<line x1="295.5" y1="379.0" x2="295.5" y2="403.0" style="stroke:black; stroke-width:1px;" />
<line x1="295.5" y1="410.0" x2="214.0" y2="434.0" style="stroke:black; stroke-width:1px;" />
<line x1="214.0" y1="441.0" x2="214.0" y2="465.0" style="stroke:black; stroke-width:1px;" />
<line x1="214.0" y1="472.0" x2="214.0" y2="496.0" style="stroke:black; stroke-width:1px;" />
<line x1="214.0" y1="503.0" x2="214.0" y2="527.0" style="stroke:black; stroke-width:1px;" />
<line x1="295.5" y1="410.0" x2="377.0" y2="434.0" style="stroke:black; stroke-width:1px;" />
<line x1="377.0" y1="441.0" x2="369.5" y2="465.0" style="stroke:black; stroke-width:1px;" />
<line x1="377.0" y1="441.0" x2="384.5" y2="465.0" style="stroke:black; stroke-width:1px;" />
<line x1="345.0" y1="317.0" x2="394.5" y2="341.0" style="stroke:black; stroke-width:1px;" />
<line x1="394.5" y1="348.0" x2="394.5" y2="372.0" style="stroke:black; stroke-width:1px;" />
<line x1="394.5" y1="379.0" x2="394.5" y2="403.0" style="stroke:black; stroke-width:1px;" />
<line x1="326.0" y1="224.0" x2="416.5" y2="248.0" style="stroke:black; stroke-width:1px;" />
<line x1="316.5625" y1="162.0" x2="587.125" y2="186.0" style="stroke:black; stroke-width:1px;" />
<line x1="587.125" y1="193.0" x2="587.125" y2="217.0" style="stroke:black; stroke-width:1px;" />
<line x1="587.125" y1="224.0" x2="525.125" y2="248.0" style="stroke:black; stroke-width:1px;" />
<line x1="587.125" y1="224.0" x2="587.125" y2="248.0" style="stroke:black; stroke-width:1px;" />
<line x1="587.125" y1="255.0" x2="587.125" y2="279.0" style="stroke:black; stroke-width:1px;" />
<line x1="587.125" y1="286.0" x2="587.125" y2="310.0" style="stroke:black; stroke-width:1px;" />
<line x1="587.125" y1="317.0" x2="587.125" y2="341.0" style="stroke:black; stroke-width:1px;" />
<line x1="587.125" y1="348.0" x2="587.125" y2="372.0" style="stroke:black; stroke-width:1px;" />
<line x1="587.125" y1="379.0" x2="550.375" y2="403.0" style="stroke:black; stroke-width:1px;" />
<line x1="550.375" y1="410.0" x2="550.375" y2="434.0" style="stroke:black; stroke-width:1px;" />
<line x1="550.375" y1="441.0" x2="426.0" y2="465.0" style="stroke:black; stroke-width:1px;" />
<line x1="426.0" y1="472.0" x2="370.25" y2="496.0" style="stroke:black; stroke-width:1px;" />
<line x1="370.25" y1="503.0" x2="370.25" y2="527.0" style="stroke:black; stroke-width:1px;" />
<line x1="370.25" y1="534.0" x2="370.25" y2="558.0" style="stroke:black; stroke-width:1px;" />
<line x1="426.0" y1="472.0" x2="443.75" y2="496.0" style="stroke:black; stroke-width:1px;" />
<line x1="426.0" y1="472.0" x2="481.75" y2="496.0" style="stroke:black; stroke-width:1px;" />
<line x1="481.75" y1="503.0" x2="481.75" y2="527.0" style="stroke:black; stroke-width:1px;" />
<line x1="550.375" y1="441.0" x2="482.625" y2="465.0" style="stroke:black; stroke-width:1px;" />
<line x1="550.375" y1="441.0" x2="535.75" y2="465.0" style="stroke:black; stroke-width:1px;" />
<line x1="535.75" y1="472.0" x2="535.75" y2="496.0" style="stroke:black; stroke-width:1px;" />
<line x1="550.375" y1="441.0" x2="573.75" y2="465.0" style="stroke:black; stroke-width:1px;" />
<line x1="550.375" y1="441.0" x2="624.25" y2="465.0" style="stroke:black; stroke-width:1px;" />
<line x1="624.25" y1="472.0" x2="624.25" y2="496.0" style="stroke:black; stroke-width:1px;" />
<line x1="624.25" y1="503.0" x2="624.25" y2="527.0" style="stroke:black; stroke-width:1px;" />
<line x1="624.25" y1="534.0" x2="624.25" y2="558.0" style="stroke:black; stroke-width:1px;" />
<line x1="624.25" y1="565.0" x2="624.25" y2="589.0" style="stroke:black; stroke-width:1px;" />
<line x1="624.25" y1="596.0" x2="624.25" y2="620.0" style="stroke:black; stroke-width:1px;" />
<line x1="624.25" y1="627.0" x2="624.25" y2="651.0" style="stroke:black; stroke-width:1px;" />
<line x1="624.25" y1="658.0" x2="624.25" y2="682.0" style="stroke:black; stroke-width:1px;" />
<line x1="624.25" y1="689.0" x2="624.25" y2="713.0" style="stroke:black; stroke-width:1px;" />
<line x1="624.25" y1="720.0" x2="624.25" y2="744.0" style="stroke:black; stroke-width:1px;" />
<line x1="624.25" y1="751.0" x2="624.25" y2="775.0" style="stroke:black; stroke-width:1px;" />
<line x1="624.25" y1="782.0" x2="624.25" y2="806.0" style="stroke:black; stroke-width:1px;" />
<line x1="624.25" y1="813.0" x2="624.25" y2="837.0" style="stroke:black; stroke-width:1px;" />
<line x1="624.25" y1="844.0" x2="624.25" y2="868.0" style="stroke:black; stroke-width:1px;" />
<line x1="624.25" y1="875.0" x2="624.25" y2="899.0" style="stroke:black; stroke-width:1px;" />
<line x1="624.25" y1="906.0" x2="624.25" y2="930.0" style="stroke:black; stroke-width:1px;" />
<line x1="624.25" y1="937.0" x2="624.25" y2="961.0" style="stroke:black; stroke-width:1px;" />
<line x1="624.25" y1="968.0" x2="624.25" y2="992.0" style="stroke:black; stroke-width:1px;" />
<line x1="624.25" y1="999.0" x2="624.25" y2="1023.0" style="stroke:black; stroke-width:1px;" />
<line x1="624.25" y1="1030.0" x2="624.25" y2="1054.0" style="stroke:black; stroke-width:1px;" />
<line x1="624.25" y1="1061.0" x2="624.25" y2="1085.0" style="stroke:black; stroke-width:1px;" />
<line x1="550.375" y1="441.0" x2="674.75" y2="465.0" style="stroke:black; stroke-width:1px;" />
<line x1="587.125" y1="379.0" x2="623.875" y2="403.0" style="stroke:black; stroke-width:1px;" />
<line x1="587.125" y1="224.0" x2="649.125" y2="248.0" style="stroke:black; stroke-width:1px;" />
<line x1="316.5625" y1="69.0" x2="392.0625" y2="93.0" style="stroke:black; stroke-width:1px;" />
<rect x="247.5" y="403.0" width="96.0" height="14.0" style="fill:orange; stroke:rgb(0,0,0);" rx="1"/>
<text x="249" y="412" style="font-family:sans-serif;font-size:10px;">
unannArrayType
</text>
<rect x="470.75" y="527.0" width="22.0" height="14.0" style="fill:orange; stroke:rgb(0,0,0);" rx="1"/>
<text x="472" y="536" style="font-family:sans-serif;font-size:10px;">
out
</text>
<rect x="439.75" y="496.0" width="8.0" height="14.0" style="fill:orange; stroke:rgb(0,0,0);" rx="1"/>
<text x="441" y="505" style="font-family:sans-serif;font-size:10px;">
.
</text>
<rect x="170.0625" y="62.0" width="54.0" height="14.0" style="fill:orange; stroke:rgb(0,0,0);" rx="1"/>
<text x="172" y="71" style="font-family:sans-serif;font-size:10px;">
identifier
</text>
<rect x="553.75" y="868.0" width="141.0" height="14.0" style="fill:orange; stroke:rgb(0,0,0);" rx="1"/>
<text x="555" y="877" style="font-family:sans-serif;font-size:10px;">
multiplicativeExpression
</text>
<rect x="367.5" y="372.0" width="54.0" height="14.0" style="fill:orange; stroke:rgb(0,0,0);" rx="1"/>
<text x="369" y="381" style="font-family:sans-serif;font-size:10px;">
identifier
</text>
<rect x="219.5" y="279.0" width="32.0" height="14.0" style="fill:orange; stroke:rgb(0,0,0);" rx="1"/>
<text x="221" y="288" style="font-family:sans-serif;font-size:10px;">
main
</text>
<rect x="580.25" y="713.0" width="88.0" height="14.0" style="fill:orange; stroke:rgb(0,0,0);" rx="1"/>
<text x="582" y="722" style="font-family:sans-serif;font-size:10px;">
andExpression
</text>
<rect x="524.125" y="372.0" width="126.0" height="14.0" style="fill:orange; stroke:rgb(0,0,0);" rx="1"/>
<text x="526" y="381" style="font-family:sans-serif;font-size:10px;">
expressionStatement
</text>
<rect x="335.5" y="341.0" width="118.0" height="14.0" style="fill:orange; stroke:rgb(0,0,0);" rx="1"/>
<text x="337" y="350" style="font-family:sans-serif;font-size:10px;">
variableDeclaratorId
</text>
<rect x="560.25" y="558.0" width="128.0" height="14.0" style="fill:orange; stroke:rgb(0,0,0);" rx="1"/>
<text x="562" y="567" style="font-family:sans-serif;font-size:10px;">
conditionalExpression
</text>
<rect x="294.5" y="310.0" width="101.0" height="14.0" style="fill:orange; stroke:rgb(0,0,0);" rx="1"/>
<text x="296" y="319" style="font-family:sans-serif;font-size:10px;">
formalParameter
</text>
<rect x="549.75" y="620.0" width="149.0" height="14.0" style="fill:orange; stroke:rgb(0,0,0);" rx="1"/>
<text x="551" y="629" style="font-family:sans-serif;font-size:10px;">
conditionalAndExpression
</text>
<rect x="285.5625" y="62.0" width="62.0" height="14.0" style="fill:orange; stroke:rgb(0,0,0);" rx="1"/>
<text x="287" y="71" style="font-family:sans-serif;font-size:10px;">
classBody
</text>
<rect x="583.75" y="1085.0" width="81.0" height="14.0" style="fill:orange; stroke:rgb(0,0,0);" rx="1"/>
<text x="585" y="1094" style="font-family:sans-serif;font-size:10px;">
"Hello,·World"
</text>
<rect x="269.5" y="248.0" width="8.0" height="14.0" style="fill:orange; stroke:rgb(0,0,0);" rx="1"/>
<text x="271" y="257" style="font-family:sans-serif;font-size:10px;">
(
</text>
<rect x="307.75" y="496.0" width="125.0" height="14.0" style="fill:orange; stroke:rgb(0,0,0);" rx="1"/>
<text x="309" y="505" style="font-family:sans-serif;font-size:10px;">
packageOrTypeName
</text>
<rect x="606.25" y="1054.0" width="36.0" height="14.0" style="fill:orange; stroke:rgb(0,0,0);" rx="1"/>
<text x="608" y="1063" style="font-family:sans-serif;font-size:10px;">
literal
</text>
<rect x="283.0" y="279.0" width="124.0" height="14.0" style="fill:orange; stroke:rgb(0,0,0);" rx="1"/>
<text x="285" y="288" style="font-family:sans-serif;font-size:10px;">
lastFormalParameter
</text>
<rect x="69.5" y="465.0" width="289.0" height="14.0" style="fill:orange; stroke:rgb(0,0,0);" rx="1"/>
<text x="71" y="474" style="font-family:sans-serif;font-size:10px;">
unannClassType_lfno_unannClassOrInterfaceType
</text>
<rect x="386.5625" y="93.0" width="11.0" height="14.0" style="fill:orange; stroke:rgb(0,0,0);" rx="1"/>
<text x="388" y="102" style="font-family:sans-serif;font-size:10px;">
}
</text>
<rect x="174.5" y="248.0" width="27.0" height="14.0" style="fill:orange; stroke:rgb(0,0,0);" rx="1"/>
<text x="176" y="257" style="font-family:sans-serif;font-size:10px;">
void
</text>
<rect x="284.5" y="248.0" width="121.0" height="14.0" style="fill:orange; stroke:rgb(0,0,0);" rx="1"/>
<text x="286" y="257" style="font-family:sans-serif;font-size:10px;">
formalParameterList
</text>
<rect x="208.5" y="248.0" width="54.0" height="14.0" style="fill:orange; stroke:rgb(0,0,0);" rx="1"/>
<text x="210" y="257" style="font-family:sans-serif;font-size:10px;">
identifier
</text>
<rect x="361.0" y="434.0" width="32.0" height="14.0" style="fill:orange; stroke:rgb(0,0,0);" rx="1"/>
<text x="363" y="443" style="font-family:sans-serif;font-size:10px;">
dims
</text>
<rect x="557.25" y="527.0" width="134.0" height="14.0" style="fill:orange; stroke:rgb(0,0,0);" rx="1"/>
<text x="559" y="536" style="font-family:sans-serif;font-size:10px;">
assignmentExpression
</text>
<rect x="568.75" y="744.0" width="111.0" height="14.0" style="fill:orange; stroke:rgb(0,0,0);" rx="1"/>
<text x="570" y="753" style="font-family:sans-serif;font-size:10px;">
equalityExpression
</text>
<rect x="537.625" y="248.0" width="99.0" height="14.0" style="fill:orange; stroke:rgb(0,0,0);" rx="1"/>
<text x="539" y="257" style="font-family:sans-serif;font-size:10px;">
blockStatements
</text>
<rect x="187.0" y="496.0" width="54.0" height="14.0" style="fill:orange; stroke:rgb(0,0,0);" rx="1"/>
<text x="189" y="505" style="font-family:sans-serif;font-size:10px;">
identifier
</text>
<rect x="195.0" y="527.0" width="38.0" height="14.0" style="fill:orange; stroke:rgb(0,0,0);" rx="1"/>
<text x="197" y="536" style="font-family:sans-serif;font-size:10px;">
String
</text>
<rect x="559.25" y="651.0" width="130.0" height="14.0" style="fill:orange; stroke:rgb(0,0,0);" rx="1"/>
<text x="561" y="660" style="font-family:sans-serif;font-size:10px;">
inclusiveOrExpression
</text>
<rect x="536.75" y="930.0" width="175.0" height="14.0" style="fill:orange; stroke:rgb(0,0,0);" rx="1"/>
<text x="538" y="939" style="font-family:sans-serif;font-size:10px;">
unaryExpressionNotPlusMinus
</text>
<rect x="600.25" y="992.0" width="48.0" height="14.0" style="fill:orange; stroke:rgb(0,0,0);" rx="1"/>
<text x="602" y="1001" style="font-family:sans-serif;font-size:10px;">
primary
</text>
<rect x="27.5" y="217.0" width="37.0" height="14.0" style="fill:orange; stroke:rgb(0,0,0);" rx="1"/>
<text x="29" y="226" style="font-family:sans-serif;font-size:10px;">
public
</text>
<rect x="127.5" y="217.0" width="35.0" height="14.0" style="fill:orange; stroke:rgb(0,0,0);" rx="1"/>
<text x="129" y="226" style="font-family:sans-serif;font-size:10px;">
static
</text>
<rect x="564.25" y="775.0" width="120.0" height="14.0" style="fill:orange; stroke:rgb(0,0,0);" rx="1"/>
<text x="566" y="784" style="font-family:sans-serif;font-size:10px;">
relationalExpression
</text>
<rect x="273.0" y="217.0" width="106.0" height="14.0" style="fill:orange; stroke:rgb(0,0,0);" rx="1"/>
<text x="275" y="226" style="font-family:sans-serif;font-size:10px;">
methodDeclarator
</text>
<rect x="474.625" y="341.0" width="225.0" height="14.0" style="fill:orange; stroke:rgb(0,0,0);" rx="1"/>
<text x="476" y="350" style="font-family:sans-serif;font-size:10px;">
statementWithoutTrailingSubstatement
</text>
<rect x="129.0625" y="62.0" width="34.0" height="14.0" style="fill:orange; stroke:rgb(0,0,0);" rx="1"/>
<text x="131" y="71" style="font-family:sans-serif;font-size:10px;">
class
</text>
<rect x="570.625" y="217.0" width="33.0" height="14.0" style="fill:orange; stroke:rgb(0,0,0);" rx="1"/>
<text x="572" y="226" style="font-family:sans-serif;font-size:10px;">
block
</text>
<rect x="527.25" y="1023.0" width="194.0" height="14.0" style="fill:orange; stroke:rgb(0,0,0);" rx="1"/>
<text x="529" y="1032" style="font-family:sans-serif;font-size:10px;">
primaryNoNewArray_lfno_primary
</text>
<rect x="515.75" y="496.0" width="40.0" height="14.0" style="fill:orange; stroke:rgb(0,0,0);" rx="1"/>
<text x="517" y="505" style="font-family:sans-serif;font-size:10px;">
println
</text>
<rect x="213.0" y="186.0" width="88.0" height="14.0" style="fill:orange; stroke:rgb(0,0,0);" rx="1"/>
<text x="215" y="195" style="font-family:sans-serif;font-size:10px;">
methodHeader
</text>
<rect x="234.0" y="372.0" width="123.0" height="14.0" style="fill:orange; stroke:rgb(0,0,0);" rx="1"/>
<text x="236" y="381" style="font-family:sans-serif;font-size:10px;">
unannReferenceType
</text>
<rect x="556.125" y="310.0" width="62.0" height="14.0" style="fill:orange; stroke:rgb(0,0,0);" rx="1"/>
<text x="558" y="319" style="font-family:sans-serif;font-size:10px;">
statement
</text>
<rect x="571.75" y="961.0" width="105.0" height="14.0" style="fill:orange; stroke:rgb(0,0,0);" rx="1"/>
<text x="573" y="970" style="font-family:sans-serif;font-size:10px;">
postfixExpression
</text>
<rect x="165.5625" y="93.0" width="63.0" height="14.0" style="fill:orange; stroke:rgb(0,0,0);" rx="1"/>
<text x="167" y="102" style="font-family:sans-serif;font-size:10px;">
HelloWorld
</text>
<rect x="346.75" y="558.0" width="47.0" height="14.0" style="fill:orange; stroke:rgb(0,0,0);" rx="1"/>
<text x="348" y="567" style="font-family:sans-serif;font-size:10px;">
System
</text>
<rect x="380.5" y="465.0" width="8.0" height="14.0" style="fill:orange; stroke:rgb(0,0,0);" rx="1"/>
<text x="382" y="474" style="font-family:sans-serif;font-size:10px;">
]
</text>
<rect x="557.75" y="682.0" width="133.0" height="14.0" style="fill:orange; stroke:rgb(0,0,0);" rx="1"/>
<text x="559" y="691" style="font-family:sans-serif;font-size:10px;">
exclusiveOrExpression
</text>
<rect x="395.5" y="465.0" width="61.0" height="14.0" style="fill:orange; stroke:rgb(0,0,0);" rx="1"/>
<text x="397" y="474" style="font-family:sans-serif;font-size:10px;">
typeName
</text>
<rect x="129.5625" y="31.0" width="140.0" height="14.0" style="fill:orange; stroke:rgb(0,0,0);" rx="1"/>
<text x="131" y="40" style="font-family:sans-serif;font-size:10px;">
normalClassDeclaration
</text>
<rect x="578.25" y="806.0" width="92.0" height="14.0" style="fill:orange; stroke:rgb(0,0,0);" rx="1"/>
<text x="580" y="815" style="font-family:sans-serif;font-size:10px;">
shiftExpression
</text>
<rect x="541.125" y="279.0" width="92.0" height="14.0" style="fill:orange; stroke:rgb(0,0,0);" rx="1"/>
<text x="543" y="288" style="font-family:sans-serif;font-size:10px;">
blockStatement
</text>
<rect x="99.0" y="186.0" width="92.0" height="14.0" style="fill:orange; stroke:rgb(0,0,0);" rx="1"/>
<text x="101" y="195" style="font-family:sans-serif;font-size:10px;">
methodModifier
</text>
<rect x="412.5" y="248.0" width="8.0" height="14.0" style="fill:orange; stroke:rgb(0,0,0);" rx="1"/>
<text x="414" y="257" style="font-family:sans-serif;font-size:10px;">
)
</text>
<rect x="568.75" y="837.0" width="111.0" height="14.0" style="fill:orange; stroke:rgb(0,0,0);" rx="1"/>
<text x="570" y="846" style="font-family:sans-serif;font-size:10px;">
additiveExpression
</text>
<rect x="569.75" y="465.0" width="8.0" height="14.0" style="fill:orange; stroke:rgb(0,0,0);" rx="1"/>
<text x="571" y="474" style="font-family:sans-serif;font-size:10px;">
(
</text>
<rect x="0.0" y="186.0" width="92.0" height="14.0" style="fill:orange; stroke:rgb(0,0,0);" rx="1"/>
<text x="2" y="195" style="font-family:sans-serif;font-size:10px;">
methodModifier
</text>
<rect x="261.0625" y="155.0" width="111.0" height="14.0" style="fill:orange; stroke:rgb(0,0,0);" rx="1"/>
<text x="263" y="164" style="font-family:sans-serif;font-size:10px;">
methodDeclaration
</text>
<rect x="487.875" y="403.0" width="125.0" height="14.0" style="fill:orange; stroke:rgb(0,0,0);" rx="1"/>
<text x="489" y="412" style="font-family:sans-serif;font-size:10px;">
statementExpression
</text>
<rect x="365.5" y="465.0" width="8.0" height="14.0" style="fill:orange; stroke:rgb(0,0,0);" rx="1"/>
<text x="367" y="474" style="font-family:sans-serif;font-size:10px;">
[
</text>
<rect x="235.5625" y="93.0" width="11.0" height="14.0" style="fill:orange; stroke:rgb(0,0,0);" rx="1"/>
<text x="237" y="102" style="font-family:sans-serif;font-size:10px;">
{
</text>
<rect x="590.75" y="496.0" width="67.0" height="14.0" style="fill:orange; stroke:rgb(0,0,0);" rx="1"/>
<text x="592" y="505" style="font-family:sans-serif;font-size:10px;">
expression
</text>
<rect x="64.0625" y="93.0" width="37.0" height="14.0" style="fill:orange; stroke:rgb(0,0,0);" rx="1"/>
<text x="66" y="102" style="font-family:sans-serif;font-size:10px;">
public
</text>
<rect x="553.25" y="589.0" width="142.0" height="14.0" style="fill:orange; stroke:rgb(0,0,0);" rx="1"/>
<text x="555" y="598" style="font-family:sans-serif;font-size:10px;">
conditionalOrExpression
</text>
<rect x="343.25" y="527.0" width="54.0" height="14.0" style="fill:orange; stroke:rgb(0,0,0);" rx="1"/>
<text x="345" y="536" style="font-family:sans-serif;font-size:10px;">
identifier
</text>
<rect x="43.0625" y="62.0" width="79.0" height="14.0" style="fill:orange; stroke:rgb(0,0,0);" rx="1"/>
<text x="45" y="71" style="font-family:sans-serif;font-size:10px;">
classModifier
</text>
<rect x="619.875" y="403.0" width="8.0" height="14.0" style="fill:orange; stroke:rgb(0,0,0);" rx="1"/>
<text x="621" y="412" style="font-family:sans-serif;font-size:10px;">
;
</text>
<rect x="150.5625" y="0.0" width="98.0" height="14.0" style="fill:orange; stroke:rgb(0,0,0);" rx="1"/>
<text x="152" y="9" style="font-family:sans-serif;font-size:10px;">
classDeclaration
</text>
<rect x="169.5" y="217.0" width="37.0" height="14.0" style="fill:orange; stroke:rgb(0,0,0);" rx="1"/>
<text x="171" y="226" style="font-family:sans-serif;font-size:10px;">
result
</text>
<rect x="478.625" y="465.0" width="8.0" height="14.0" style="fill:orange; stroke:rgb(0,0,0);" rx="1"/>
<text x="480" y="474" style="font-family:sans-serif;font-size:10px;">
.
</text>
<rect x="549.625" y="186.0" width="75.0" height="14.0" style="fill:orange; stroke:rgb(0,0,0);" rx="1"/>
<text x="551" y="195" style="font-family:sans-serif;font-size:10px;">
methodBody
</text>
<rect x="379.5" y="403.0" width="30.0" height="14.0" style="fill:orange; stroke:rgb(0,0,0);" rx="1"/>
<text x="381" y="412" style="font-family:sans-serif;font-size:10px;">
args
</text>
<rect x="643.625" y="248.0" width="11.0" height="14.0" style="fill:orange; stroke:rgb(0,0,0);" rx="1"/>
<text x="645" y="257" style="font-family:sans-serif;font-size:10px;">
}
</text>
<rect x="244.5625" y="124.0" width="144.0" height="14.0" style="fill:orange; stroke:rgb(0,0,0);" rx="1"/>
<text x="246" y="133" style="font-family:sans-serif;font-size:10px;">
classMemberDeclaration
</text>
<rect x="133.0" y="434.0" width="162.0" height="14.0" style="fill:orange; stroke:rgb(0,0,0);" rx="1"/>
<text x="135" y="443" style="font-family:sans-serif;font-size:10px;">
unannClassOrInterfaceType
</text>
<rect x="574.75" y="899.0" width="99.0" height="14.0" style="fill:orange; stroke:rgb(0,0,0);" rx="1"/>
<text x="576" y="908" style="font-family:sans-serif;font-size:10px;">
unaryExpression
</text>
<rect x="584.75" y="465.0" width="79.0" height="14.0" style="fill:orange; stroke:rgb(0,0,0);" rx="1"/>
<text x="586" y="474" style="font-family:sans-serif;font-size:10px;">
argumentList
</text>
<rect x="670.75" y="465.0" width="8.0" height="14.0" style="fill:orange; stroke:rgb(0,0,0);" rx="1"/>
<text x="672" y="474" style="font-family:sans-serif;font-size:10px;">
)
</text>
<rect x="498.375" y="434.0" width="104.0" height="14.0" style="fill:orange; stroke:rgb(0,0,0);" rx="1"/>
<text x="500" y="443" style="font-family:sans-serif;font-size:10px;">
methodInvocation
</text>
<rect x="519.625" y="248.0" width="11.0" height="14.0" style="fill:orange; stroke:rgb(0,0,0);" rx="1"/>
<text x="521" y="257" style="font-family:sans-serif;font-size:10px;">
{
</text>
<rect x="508.75" y="465.0" width="54.0" height="14.0" style="fill:orange; stroke:rgb(0,0,0);" rx="1"/>
<text x="510" y="474" style="font-family:sans-serif;font-size:10px;">
identifier
</text>
<rect x="262.5" y="341.0" width="66.0" height="14.0" style="fill:orange; stroke:rgb(0,0,0);" rx="1"/>
<text x="264" y="350" style="font-family:sans-serif;font-size:10px;">
unannType
</text>
<rect x="454.75" y="496.0" width="54.0" height="14.0" style="fill:orange; stroke:rgb(0,0,0);" rx="1"/>
<text x="456" y="505" style="font-family:sans-serif;font-size:10px;">
identifier
</text>
<rect x="253.5625" y="93.0" width="126.0" height="14.0" style="fill:orange; stroke:rgb(0,0,0);" rx="1"/>
<text x="255" y="102" style="font-family:sans-serif;font-size:10px;">
classBodyDeclaration
</text>
</svg>